<svg width="526" height="386" viewBox="0 0 526 386" fill="none" xmlns="http://www.w3.org/2000/svg">
<path fill-rule="evenodd" clip-rule="evenodd" d="M245.623 272.532L0.00952148 273L-2.30758e-06 268L231.556 267.559L250.529 88.5322H148.029C166.029 77.8655 211.729 56.5322 250.529 56.5322L148.029 0.032251C174.603 -0.791014 231.828 16.8038 250.529 25.0322L264.529 31.5321L277.029 26.5322C294.406 18.2164 351.602 -0.89022 379.029 0.032251L277.029 56.5322C313.829 56.5322 360.362 77.8655 379.029 88.5322H277.029L302.793 267.423L525 267L525.01 272L303.513 272.422L303.529 272.532H245.623ZM148.01 362H0.00952148V357H148.01V362ZM377.01 362H525.01V357H377.01V362ZM42.4386 313.72C43.9319 313.987 45.1986 314.773 46.2386 316.08C47.2786 317.387 47.7986 318.867 47.7986 320.52C47.7986 321.933 47.4253 323.213 46.6786 324.36C45.9586 325.48 44.9053 326.373 43.5186 327.04C42.1319 327.68 40.5186 328 38.6786 328H27.5586V300.2H38.1586C40.0519 300.2 41.6786 300.52 43.0386 301.16C44.3986 301.8 45.4253 302.667 46.1186 303.76C46.8119 304.827 47.1586 306.027 47.1586 307.36C47.1586 308.96 46.7319 310.293 45.8786 311.36C45.0253 312.427 43.8786 313.213 42.4386 313.72ZM32.1186 311.88H37.7586C39.2519 311.88 40.4119 311.547 41.2386 310.88C42.0919 310.187 42.5186 309.2 42.5186 307.92C42.5186 306.667 42.0919 305.693 41.2386 305C40.4119 304.28 39.2519 303.92 37.7586 303.92H32.1186V311.88ZM38.2786 324.28C39.8253 324.28 41.0386 323.907 41.9186 323.16C42.7986 322.413 43.2386 321.373 43.2386 320.04C43.2386 318.68 42.7719 317.6 41.8386 316.8C40.9053 316 39.6653 315.6 38.1186 315.6H32.1186V324.28H38.2786ZM65.1139 303.88V312.04H74.7139V315.76H65.1139V324.28H75.9139V328H60.5539V300.16H75.9139V303.88H65.1139ZM106.09 322.32H94.4505L92.4505 328H87.6905L97.6505 300.16H102.93L112.89 328H108.09L106.09 322.32ZM104.81 318.6L100.29 305.68L95.7305 318.6H104.81ZM129.541 300.2V317.92C129.541 320.027 130.088 321.613 131.181 322.68C132.301 323.747 133.848 324.28 135.821 324.28C137.821 324.28 139.368 323.747 140.461 322.68C141.581 321.613 142.141 320.027 142.141 317.92V300.2H146.701V317.84C146.701 320.107 146.208 322.027 145.221 323.6C144.234 325.173 142.914 326.347 141.261 327.12C139.608 327.893 137.781 328.28 135.781 328.28C133.781 328.28 131.954 327.893 130.301 327.12C128.674 326.347 127.381 325.173 126.421 323.6C125.461 322.027 124.981 320.107 124.981 317.84V300.2H129.541ZM178.398 300.2V303.92H170.998V328H166.438V303.92H158.998V300.2H178.398ZM195.376 300.2V328H190.816V300.2H195.376ZM225.523 300.2V303.92H213.723V312.12H222.923V315.84H213.723V328H209.163V300.2H225.523ZM242.069 300.2V317.92C242.069 320.027 242.616 321.613 243.709 322.68C244.829 323.747 246.376 324.28 248.349 324.28C250.349 324.28 251.896 323.747 252.989 322.68C254.109 321.613 254.669 320.027 254.669 317.92V300.2H259.229V317.84C259.229 320.107 258.736 322.027 257.749 323.6C256.763 325.173 255.443 326.347 253.789 327.12C252.136 327.893 250.309 328.28 248.309 328.28C246.309 328.28 244.483 327.893 242.829 327.12C241.203 326.347 239.909 325.173 238.949 323.6C237.989 322.027 237.509 320.107 237.509 317.84V300.2H242.069ZM277.526 324.32H286.926V328H272.966V300.2H277.526V324.32ZM321.29 303.88V312.04H330.89V315.76H321.29V324.28H332.09V328H316.73V300.16H332.09V303.88H321.29ZM354.667 328.28C352.8 328.28 351.12 327.96 349.627 327.32C348.134 326.653 346.96 325.72 346.107 324.52C345.254 323.32 344.827 321.92 344.827 320.32H349.707C349.814 321.52 350.28 322.507 351.107 323.28C351.96 324.053 353.147 324.44 354.667 324.44C356.24 324.44 357.467 324.067 358.347 323.32C359.227 322.547 359.667 321.56 359.667 320.36C359.667 319.427 359.387 318.667 358.827 318.08C358.294 317.493 357.614 317.04 356.787 316.72C355.987 316.4 354.867 316.053 353.427 315.68C351.614 315.2 350.134 314.72 348.987 314.24C347.867 313.733 346.907 312.96 346.107 311.92C345.307 310.88 344.907 309.493 344.907 307.76C344.907 306.16 345.307 304.76 346.107 303.56C346.907 302.36 348.027 301.44 349.467 300.8C350.907 300.16 352.574 299.84 354.467 299.84C357.16 299.84 359.36 300.52 361.067 301.88C362.8 303.213 363.76 305.053 363.947 307.4H358.907C358.827 306.387 358.347 305.52 357.467 304.8C356.587 304.08 355.427 303.72 353.987 303.72C352.68 303.72 351.614 304.053 350.787 304.72C349.96 305.387 349.547 306.347 349.547 307.6C349.547 308.453 349.8 309.16 350.307 309.72C350.84 310.253 351.507 310.68 352.307 311C353.107 311.32 354.2 311.667 355.587 312.04C357.427 312.547 358.92 313.053 360.067 313.56C361.24 314.067 362.227 314.853 363.027 315.92C363.854 316.96 364.267 318.36 364.267 320.12C364.267 321.533 363.88 322.867 363.107 324.12C362.36 325.373 361.254 326.387 359.787 327.16C358.347 327.907 356.64 328.28 354.667 328.28ZM375.928 314.04C375.928 311.32 376.554 308.88 377.808 306.72C379.088 304.56 380.808 302.88 382.968 301.68C385.154 300.453 387.541 299.84 390.128 299.84C393.088 299.84 395.714 300.573 398.008 302.04C400.328 303.48 402.008 305.533 403.048 308.2H397.568C396.848 306.733 395.848 305.64 394.568 304.92C393.288 304.2 391.808 303.84 390.128 303.84C388.288 303.84 386.648 304.253 385.208 305.08C383.768 305.907 382.634 307.093 381.808 308.64C381.008 310.187 380.608 311.987 380.608 314.04C380.608 316.093 381.008 317.893 381.808 319.44C382.634 320.987 383.768 322.187 385.208 323.04C386.648 323.867 388.288 324.28 390.128 324.28C391.808 324.28 393.288 323.92 394.568 323.2C395.848 322.48 396.848 321.387 397.568 319.92H403.048C402.008 322.587 400.328 324.64 398.008 326.08C395.714 327.52 393.088 328.24 390.128 328.24C387.514 328.24 385.128 327.64 382.968 326.44C380.808 325.213 379.088 323.52 377.808 321.36C376.554 319.2 375.928 316.76 375.928 314.04ZM432.945 322.32H421.305L419.305 328H414.545L424.505 300.16H429.785L439.745 328H434.945L432.945 322.32ZM431.665 318.6L427.145 305.68L422.585 318.6H431.665ZM471.316 308.48C471.316 309.893 470.982 311.227 470.316 312.48C469.649 313.733 468.582 314.76 467.116 315.56C465.649 316.333 463.769 316.72 461.476 316.72H456.436V328H451.876V300.2H461.476C463.609 300.2 465.409 300.573 466.876 301.32C468.369 302.04 469.476 303.027 470.196 304.28C470.942 305.533 471.316 306.933 471.316 308.48ZM461.476 313C463.209 313 464.502 312.613 465.356 311.84C466.209 311.04 466.636 309.92 466.636 308.48C466.636 305.44 464.916 303.92 461.476 303.92H456.436V313H461.476ZM488.025 303.88V312.04H497.625V315.76H488.025V324.28H498.825V328H483.465V300.16H498.825V303.88H488.025ZM179.735 373.88L186.135 385H191.575L184.695 373.48C186.882 372.947 188.495 371.947 189.535 370.48C190.602 368.987 191.135 367.333 191.135 365.52C191.135 363.973 190.762 362.573 190.015 361.32C189.295 360.067 188.189 359.067 186.695 358.32C185.229 357.573 183.429 357.2 181.295 357.2H171.695V385H176.255V373.88H179.735ZM181.295 370.24H176.255V360.92H181.295C183.029 360.92 184.322 361.333 185.175 362.16C186.029 362.96 186.455 364.08 186.455 365.52C186.455 366.96 186.015 368.107 185.135 368.96C184.282 369.813 183.002 370.24 181.295 370.24ZM209.329 369.04V360.88H220.129V357.16H204.769V385H220.129V381.28H209.329V372.76H218.929V369.04H209.329ZM237.665 384.32C239.159 384.96 240.839 385.28 242.705 385.28C244.679 385.28 246.385 384.907 247.825 384.16C249.292 383.387 250.399 382.373 251.145 381.12C251.919 379.867 252.305 378.533 252.305 377.12C252.305 375.36 251.892 373.96 251.065 372.92C250.265 371.853 249.279 371.067 248.105 370.56C246.959 370.053 245.465 369.547 243.625 369.04C242.239 368.667 241.145 368.32 240.345 368C239.545 367.68 238.879 367.253 238.345 366.72C237.839 366.16 237.585 365.453 237.585 364.6C237.585 363.347 237.999 362.387 238.825 361.72C239.652 361.053 240.719 360.72 242.025 360.72C243.465 360.72 244.625 361.08 245.505 361.8C246.385 362.52 246.865 363.387 246.945 364.4H251.985C251.799 362.053 250.839 360.213 249.105 358.88C247.399 357.52 245.199 356.84 242.505 356.84C240.612 356.84 238.945 357.16 237.505 357.8C236.065 358.44 234.945 359.36 234.145 360.56C233.345 361.76 232.945 363.16 232.945 364.76C232.945 366.493 233.345 367.88 234.145 368.92C234.945 369.96 235.905 370.733 237.025 371.24C238.172 371.72 239.652 372.2 241.465 372.68C242.905 373.053 244.025 373.4 244.825 373.72C245.652 374.04 246.332 374.493 246.865 375.08C247.425 375.667 247.705 376.427 247.705 377.36C247.705 378.56 247.265 379.547 246.385 380.32C245.505 381.067 244.279 381.44 242.705 381.44C241.185 381.44 239.999 381.053 239.145 380.28C238.319 379.507 237.852 378.52 237.745 377.32H232.865C232.865 378.92 233.292 380.32 234.145 381.52C234.999 382.72 236.172 383.653 237.665 384.32ZM271.006 383.48C273.193 384.68 275.579 385.28 278.166 385.28C280.779 385.28 283.166 384.68 285.326 383.48C287.513 382.253 289.233 380.56 290.486 378.4C291.739 376.213 292.366 373.76 292.366 371.04C292.366 368.32 291.739 365.88 290.486 363.72C289.233 361.56 287.513 359.88 285.326 358.68C283.166 357.453 280.779 356.84 278.166 356.84C275.579 356.84 273.193 357.453 271.006 358.68C268.846 359.88 267.126 361.56 265.846 363.72C264.593 365.88 263.966 368.32 263.966 371.04C263.966 373.76 264.593 376.213 265.846 378.4C267.126 380.56 268.846 382.253 271.006 383.48ZM283.086 380.08C281.646 380.907 280.006 381.32 278.166 381.32C276.326 381.32 274.686 380.907 273.246 380.08C271.806 379.227 270.673 378.027 269.846 376.48C269.046 374.907 268.646 373.093 268.646 371.04C268.646 368.987 269.046 367.187 269.846 365.64C270.673 364.093 271.806 362.907 273.246 362.08C274.686 361.253 276.326 360.84 278.166 360.84C280.006 360.84 281.646 361.253 283.086 362.08C284.526 362.907 285.646 364.093 286.446 365.64C287.273 367.187 287.686 368.987 287.686 371.04C287.686 373.093 287.273 374.907 286.446 376.48C285.646 378.027 284.526 379.227 283.086 380.08ZM312.693 373.88L319.093 385H324.533L317.653 373.48C319.84 372.947 321.453 371.947 322.493 370.48C323.56 368.987 324.093 367.333 324.093 365.52C324.093 363.973 323.72 362.573 322.973 361.32C322.253 360.067 321.146 359.067 319.653 358.32C318.186 357.573 316.386 357.2 314.253 357.2H304.653V385H309.213V373.88H312.693ZM314.253 370.24H309.213V360.92H314.253C315.986 360.92 317.28 361.333 318.133 362.16C318.986 362.96 319.413 364.08 319.413 365.52C319.413 366.96 318.973 368.107 318.093 368.96C317.24 369.813 315.96 370.24 314.253 370.24ZM355.687 360.92V357.2H336.287V360.92H343.727V385H348.287V360.92H355.687Z" fill="white"/>
</svg>
