<svg width="526" height="385" viewBox="0 0 526 385" fill="none" xmlns="http://www.w3.org/2000/svg">
<path fill-rule="evenodd" clip-rule="evenodd" d="M303.071 269.423L525 269L525.019 279L0.0190476 280L0 270L231.334 269.559L250.519 88.5322H148.019C166.019 77.8655 211.719 56.5322 250.519 56.5322L148.019 0.032251C174.594 -0.791014 231.819 16.8038 250.519 25.0322L264.519 31.5321L277.019 26.5322C294.396 18.2165 351.592 -0.89022 379.019 0.032251L277.019 56.5322C313.819 56.5322 360.352 77.8655 379.019 88.5322H277.019L303.071 269.423ZM148.019 373H0.0190476V363H148.019V373ZM377.019 373H525.019V363H377.019V373ZM40.4433 322.68C42.0166 322.973 43.3099 323.76 44.3233 325.04C45.3366 326.32 45.8433 327.787 45.8433 329.44C45.8433 330.933 45.4699 332.253 44.7233 333.4C44.0033 334.52 42.9499 335.4 41.5633 336.04C40.1766 336.68 38.5366 337 36.6433 337H24.6033V309.08H36.1233C38.0166 309.08 39.6433 309.387 41.0033 310C42.3899 310.613 43.4299 311.467 44.1233 312.56C44.8433 313.653 45.2033 314.893 45.2033 316.28C45.2033 317.907 44.7633 319.267 43.8833 320.36C43.0299 321.453 41.8833 322.227 40.4433 322.68ZM30.2033 320.6H35.3233C36.6566 320.6 37.6833 320.307 38.4033 319.72C39.1233 319.107 39.4833 318.24 39.4833 317.12C39.4833 316 39.1233 315.133 38.4033 314.52C37.6833 313.907 36.6566 313.6 35.3233 313.6H30.2033V320.6ZM35.8433 332.44C37.2033 332.44 38.2566 332.12 39.0033 331.48C39.7766 330.84 40.1633 329.933 40.1633 328.76C40.1633 327.56 39.7633 326.627 38.9633 325.96C38.1633 325.267 37.0833 324.92 35.7233 324.92H30.2033V332.44H35.8433ZM63.7064 313.6V320.6H73.1064V325.04H63.7064V332.44H74.3064V337H58.1064V309.04H74.3064V313.6H63.7064ZM93.1955 331.68L91.3555 337H85.4755L95.5155 309.04H102.035L112.075 337H106.155L104.315 331.68H93.1955ZM102.795 327.2L98.7555 315.52L94.7155 327.2H102.795ZM129.148 309.08V326.36C129.148 328.253 129.642 329.707 130.628 330.72C131.615 331.707 133.002 332.2 134.788 332.2C136.602 332.2 138.002 331.707 138.988 330.72C139.975 329.707 140.468 328.253 140.468 326.36V309.08H146.108V326.32C146.108 328.693 145.588 330.707 144.548 332.36C143.535 333.987 142.162 335.213 140.428 336.04C138.722 336.867 136.815 337.28 134.708 337.28C132.628 337.28 130.735 336.867 129.028 336.04C127.348 335.213 126.015 333.987 125.028 332.36C124.042 330.707 123.548 328.693 123.548 326.32V309.08H129.148ZM178.319 309.08V313.6H170.879V337H165.279V313.6H157.839V309.08H178.319ZM195.805 309.08V337H190.205V309.08H195.805ZM226.378 309.08V313.6H214.738V320.76H223.658V325.2H214.738V337H209.138V309.08H226.378ZM243.669 309.08V326.36C243.669 328.253 244.162 329.707 245.149 330.72C246.135 331.707 247.522 332.2 249.309 332.2C251.122 332.2 252.522 331.707 253.509 330.72C254.495 329.707 254.989 328.253 254.989 326.36V309.08H260.629V326.32C260.629 328.693 260.109 330.707 259.069 332.36C258.055 333.987 256.682 335.213 254.949 336.04C253.242 336.867 251.335 337.28 249.229 337.28C247.149 337.28 245.255 336.867 243.549 336.04C241.869 335.213 240.535 333.987 239.549 332.36C238.562 330.707 238.069 328.693 238.069 326.32V309.08H243.669ZM279.439 332.56H288.639V337H273.839V309.08H279.439V332.56ZM322.93 313.6V320.6H332.33V325.04H322.93V332.44H333.53V337H317.33V309.04H333.53V313.6H322.93ZM356.059 337.28C354.112 337.28 352.352 336.947 350.779 336.28C349.232 335.613 348.006 334.653 347.099 333.4C346.192 332.147 345.726 330.667 345.699 328.96H351.699C351.779 330.107 352.179 331.013 352.899 331.68C353.646 332.347 354.659 332.68 355.939 332.68C357.246 332.68 358.272 332.373 359.019 331.76C359.766 331.12 360.139 330.293 360.139 329.28C360.139 328.453 359.886 327.773 359.379 327.24C358.872 326.707 358.232 326.293 357.459 326C356.712 325.68 355.672 325.333 354.339 324.96C352.526 324.427 351.046 323.907 349.899 323.4C348.779 322.867 347.806 322.08 346.979 321.04C346.179 319.973 345.779 318.56 345.779 316.8C345.779 315.147 346.192 313.707 347.019 312.48C347.846 311.253 349.006 310.32 350.499 309.68C351.992 309.013 353.699 308.68 355.619 308.68C358.499 308.68 360.832 309.387 362.619 310.8C364.432 312.187 365.432 314.133 365.619 316.64H359.459C359.406 315.68 358.992 314.893 358.219 314.28C357.472 313.64 356.472 313.32 355.219 313.32C354.126 313.32 353.246 313.6 352.579 314.16C351.939 314.72 351.619 315.533 351.619 316.6C351.619 317.347 351.859 317.973 352.339 318.48C352.846 318.96 353.459 319.36 354.179 319.68C354.926 319.973 355.966 320.32 357.299 320.72C359.112 321.253 360.592 321.787 361.739 322.32C362.886 322.853 363.872 323.653 364.699 324.72C365.526 325.787 365.939 327.187 365.939 328.92C365.939 330.413 365.552 331.8 364.779 333.08C364.006 334.36 362.872 335.387 361.379 336.16C359.886 336.907 358.112 337.28 356.059 337.28ZM377.234 323C377.234 320.253 377.847 317.8 379.074 315.64C380.327 313.453 382.021 311.76 384.154 310.56C386.314 309.333 388.727 308.72 391.394 308.72C394.514 308.72 397.247 309.52 399.594 311.12C401.941 312.72 403.581 314.933 404.514 317.76H398.074C397.434 316.427 396.527 315.427 395.354 314.76C394.207 314.093 392.874 313.76 391.354 313.76C389.727 313.76 388.274 314.147 386.994 314.92C385.741 315.667 384.754 316.733 384.034 318.12C383.341 319.507 382.994 321.133 382.994 323C382.994 324.84 383.341 326.467 384.034 327.88C384.754 329.267 385.741 330.347 386.994 331.12C388.274 331.867 389.727 332.24 391.354 332.24C392.874 332.24 394.207 331.907 395.354 331.24C396.527 330.547 397.434 329.533 398.074 328.2H404.514C403.581 331.053 401.941 333.28 399.594 334.88C397.274 336.453 394.541 337.24 391.394 337.24C388.727 337.24 386.314 336.64 384.154 335.44C382.021 334.213 380.327 332.52 379.074 330.36C377.847 328.2 377.234 325.747 377.234 323ZM423.097 331.68L421.257 337H415.377L425.417 309.04H431.937L441.977 337H436.057L434.217 331.68H423.097ZM432.697 327.2L428.657 315.52L424.617 327.2H432.697ZM473.89 317.72C473.89 319.213 473.53 320.613 472.81 321.92C472.117 323.227 471.01 324.28 469.49 325.08C467.996 325.88 466.103 326.28 463.81 326.28H459.13V337H453.53V309.08H463.81C465.97 309.08 467.81 309.453 469.33 310.2C470.85 310.947 471.983 311.973 472.73 313.28C473.503 314.587 473.89 316.067 473.89 317.72ZM463.57 321.76C465.117 321.76 466.263 321.413 467.01 320.72C467.757 320 468.13 319 468.13 317.72C468.13 315 466.61 313.64 463.57 313.64H459.13V321.76H463.57ZM491.266 313.6V320.6H500.666V325.04H491.266V332.44H501.866V337H485.666V309.04H501.866V313.6H491.266ZM176.567 367.6V360.6H187.167V356.04H170.967V384H187.167V379.44H176.567V372.04H185.967V367.6H176.567ZM204.416 383.28C205.989 383.947 207.749 384.28 209.696 384.28C211.749 384.28 213.522 383.907 215.016 383.16C216.509 382.387 217.642 381.36 218.416 380.08C219.189 378.8 219.576 377.413 219.576 375.92C219.576 374.187 219.162 372.787 218.336 371.72C217.509 370.653 216.522 369.853 215.376 369.32C214.229 368.787 212.749 368.253 210.936 367.72C209.602 367.32 208.562 366.973 207.816 366.68C207.096 366.36 206.482 365.96 205.976 365.48C205.496 364.973 205.256 364.347 205.256 363.6C205.256 362.533 205.576 361.72 206.216 361.16C206.882 360.6 207.762 360.32 208.856 360.32C210.109 360.32 211.109 360.64 211.856 361.28C212.629 361.893 213.042 362.68 213.096 363.64H219.256C219.069 361.133 218.069 359.187 216.256 357.8C214.469 356.387 212.136 355.68 209.256 355.68C207.336 355.68 205.629 356.013 204.136 356.68C202.642 357.32 201.482 358.253 200.656 359.48C199.829 360.707 199.416 362.147 199.416 363.8C199.416 365.56 199.816 366.973 200.616 368.04C201.442 369.08 202.416 369.867 203.536 370.4C204.682 370.907 206.162 371.427 207.976 371.96C209.309 372.333 210.349 372.68 211.096 373C211.869 373.293 212.509 373.707 213.016 374.24C213.522 374.773 213.776 375.453 213.776 376.28C213.776 377.293 213.402 378.12 212.656 378.76C211.909 379.373 210.882 379.68 209.576 379.68C208.296 379.68 207.282 379.347 206.536 378.68C205.816 378.013 205.416 377.107 205.336 375.96H199.336C199.362 377.667 199.829 379.147 200.736 380.4C201.642 381.653 202.869 382.613 204.416 383.28ZM232.711 362.64C231.484 364.8 230.871 367.253 230.871 370C230.871 372.747 231.484 375.2 232.711 377.36C233.964 379.52 235.657 381.213 237.791 382.44C239.951 383.64 242.364 384.24 245.031 384.24C248.177 384.24 250.911 383.453 253.231 381.88C255.577 380.28 257.217 378.053 258.151 375.2H251.711C251.071 376.533 250.164 377.547 248.991 378.24C247.844 378.907 246.511 379.24 244.991 379.24C243.364 379.24 241.911 378.867 240.631 378.12C239.377 377.347 238.391 376.267 237.671 374.88C236.977 373.467 236.631 371.84 236.631 370C236.631 368.133 236.977 366.507 237.671 365.12C238.391 363.733 239.377 362.667 240.631 361.92C241.911 361.147 243.364 360.76 244.991 360.76C246.511 360.76 247.844 361.093 248.991 361.76C250.164 362.427 251.071 363.427 251.711 364.76H258.151C257.217 361.933 255.577 359.72 253.231 358.12C250.884 356.52 248.151 355.72 245.031 355.72C242.364 355.72 239.951 356.333 237.791 357.56C235.657 358.76 233.964 360.453 232.711 362.64ZM274.894 384L276.734 378.68H287.854L289.694 384H295.614L285.574 356.04H279.054L269.014 384H274.894ZM282.294 362.52L286.334 374.2H278.254L282.294 362.52ZM326.447 368.92C327.167 367.613 327.527 366.213 327.527 364.72C327.527 363.067 327.14 361.587 326.367 360.28C325.62 358.973 324.487 357.947 322.967 357.2C321.447 356.453 319.607 356.08 317.447 356.08H307.167V384H312.767V373.28H317.447C319.74 373.28 321.633 372.88 323.127 372.08C324.647 371.28 325.753 370.227 326.447 368.92ZM320.647 367.72C319.9 368.413 318.753 368.76 317.207 368.76H312.767V360.64H317.207C320.247 360.64 321.767 362 321.767 364.72C321.767 366 321.393 367 320.647 367.72ZM344.902 367.6V360.6H355.502V356.04H339.302V384H355.502V379.44H344.902V372.04H354.302V367.6H344.902Z" fill="white"/>
</svg>
