<svg width="539" height="387" viewBox="0 0 539 387" fill="none" xmlns="http://www.w3.org/2000/svg">
<path fill-rule="evenodd" clip-rule="evenodd" d="M245.696 247.274L243.019 272.532H293.463C293.798 272.537 294.132 272.537 294.464 272.532H315.519L314.655 266.532C318.152 264.478 321.139 262.14 323.449 259.93L323.502 259.975C323.532 259.939 323.563 259.902 323.594 259.866C323.624 259.829 323.655 259.792 323.687 259.756C323.788 259.636 323.892 259.516 323.997 259.395C324.127 259.266 324.255 259.137 324.38 259.009L324.359 258.989C328.614 254.273 335.632 249.049 343.8 247.469C352.301 245.824 362.476 248.035 372.647 259.993C383.892 273.213 396.17 276.195 406.99 274.19C416.569 272.415 424.731 266.79 429.87 261.652L429.874 261.655L429.92 261.603C430.441 261.08 430.931 260.563 431.387 260.055C435.638 255.842 442.294 251.36 450 249.951C458.484 248.4 468.585 250.504 478.642 261.673C489.811 274.077 501.965 276.837 512.631 274.97C523.103 273.138 531.883 266.903 536.811 261.723L533.189 258.277C528.783 262.907 520.914 268.445 511.769 270.045C502.819 271.612 492.388 269.467 482.358 258.327C471.215 245.952 459.399 243.15 449.1 245.033C439.121 246.857 430.9 253.01 426.279 258.173C421.66 262.775 414.383 267.735 406.079 269.274C397.106 270.936 386.599 268.679 376.455 256.753C365.237 243.565 353.3 240.538 342.85 242.56C333.134 244.44 325.089 250.606 320.357 255.963C318.63 257.665 316.433 259.47 313.878 261.135L289.019 88.5322H391.019C372.353 77.8655 325.819 56.5322 289.019 56.5322L391.019 0.0322449C363.592 -0.890226 306.397 18.2164 289.019 26.5321L276.519 31.5321L262.519 25.0321C243.819 16.8038 186.594 -0.79102 160.019 0.0322449L262.519 56.5322C223.719 56.5322 178.019 77.8655 160.019 88.5322H262.519L246.223 242.298C242.686 241.801 239.235 241.924 235.941 242.511C226.372 244.214 218.398 249.772 213.629 254.684C209.054 258.683 201.928 262.968 193.774 264.316C184.753 265.807 174.286 263.749 164.259 253.231C153.089 241.513 141.288 238.897 131.042 240.666C121.464 242.319 113.488 247.755 108.766 252.525C104.305 256.446 96.6277 261.023 87.6971 262.381C78.5942 263.766 68.088 261.835 58.0765 252.173C54.5993 248.818 51.0665 246.276 47.5435 244.415C39.7295 240.135 31.9529 239.32 24.9285 240.476C19.9117 241.302 15.3314 243.122 11.4285 245.323C7.54837 247.441 4.33723 249.924 2.03326 252.19L2.14705 252.306C2.09763 252.355 2.04861 252.405 2 252.455L5.56903 255.956C7.58714 253.899 10.4284 251.632 13.8545 249.696C17.3062 247.816 21.3521 246.26 25.7508 245.561C31.6869 244.618 38.3476 245.219 45.1889 248.826C48.2763 250.523 51.4023 252.859 54.5168 255.973C65.7106 267.167 77.8162 269.601 88.3737 267.937C98.7854 266.297 107.555 260.705 112.503 256.021L112.436 255.951C112.486 255.907 112.534 255.862 112.583 255.818L112.564 255.798C116.76 251.648 123.73 247.002 131.893 245.593C140.45 244.115 150.588 246.137 160.64 256.681C171.835 268.424 183.975 271.004 194.59 269.249C203.546 267.768 211.278 263.235 216.418 258.879L216.488 258.942C216.68 258.731 216.879 258.517 217.085 258.302C217.686 257.771 218.248 257.245 218.767 256.73L218.733 256.696C223.034 252.763 229.446 248.746 236.817 247.434C239.624 246.934 242.603 246.82 245.696 247.274ZM56.3042 307.04C55.2909 305.76 53.9976 304.973 52.4242 304.68C53.8642 304.227 55.0109 303.453 55.8642 302.36C56.7442 301.267 57.1842 299.907 57.1842 298.28C57.1842 296.893 56.8242 295.653 56.1042 294.56C55.4109 293.467 54.3709 292.613 52.9842 292C51.6242 291.387 49.9976 291.08 48.1042 291.08H36.5842V319H48.6242C50.5176 319 52.1576 318.68 53.5442 318.04C54.9309 317.4 55.9842 316.52 56.7042 315.4C57.4509 314.253 57.8242 312.933 57.8242 311.44C57.8242 309.787 57.3176 308.32 56.3042 307.04ZM47.3042 302.6H42.1842V295.6H47.3042C48.6376 295.6 49.6642 295.907 50.3842 296.52C51.1042 297.133 51.4642 298 51.4642 299.12C51.4642 300.24 51.1042 301.107 50.3842 301.72C49.6642 302.307 48.6376 302.6 47.3042 302.6ZM50.9842 313.48C50.2376 314.12 49.1842 314.44 47.8242 314.44H42.1842V306.92H47.7042C49.0642 306.92 50.1442 307.267 50.9442 307.96C51.7442 308.627 52.1442 309.56 52.1442 310.76C52.1442 311.933 51.7576 312.84 50.9842 313.48ZM75.6874 302.6V295.6H86.2874V291.04H70.0874V319H86.2874V314.44H75.6874V307.04H85.0874V302.6H75.6874ZM103.336 319L105.176 313.68H116.296L118.136 319H124.056L114.016 291.04H107.496L97.4564 319H103.336ZM110.736 297.52L114.776 309.2H106.696L110.736 297.52ZM141.129 308.36V291.08H135.529V308.32C135.529 310.693 136.023 312.707 137.009 314.36C137.996 315.987 139.329 317.213 141.009 318.04C142.716 318.867 144.609 319.28 146.689 319.28C148.796 319.28 150.703 318.867 152.409 318.04C154.143 317.213 155.516 315.987 156.529 314.36C157.569 312.707 158.089 310.693 158.089 308.32V291.08H152.449V308.36C152.449 310.253 151.956 311.707 150.969 312.72C149.983 313.707 148.583 314.2 146.769 314.2C144.983 314.2 143.596 313.707 142.609 312.72C141.623 311.707 141.129 310.253 141.129 308.36ZM190.3 295.6V291.08H169.82V295.6H177.26V319H182.86V295.6H190.3ZM207.786 319V291.08H202.186V319H207.786ZM238.359 295.6V291.08H221.119V319H226.719V307.2H235.639V302.76H226.719V295.6H238.359ZM255.65 308.36V291.08H250.05V308.32C250.05 310.693 250.543 312.707 251.53 314.36C252.516 315.987 253.85 317.213 255.53 318.04C257.236 318.867 259.13 319.28 261.21 319.28C263.316 319.28 265.223 318.867 266.93 318.04C268.663 317.213 270.036 315.987 271.05 314.36C272.09 312.707 272.61 310.693 272.61 308.32V291.08H266.97V308.36C266.97 310.253 266.476 311.707 265.49 312.72C264.503 313.707 263.103 314.2 261.29 314.2C259.503 314.2 258.116 313.707 257.13 312.72C256.143 311.707 255.65 310.253 255.65 308.36ZM300.62 314.56H291.42V291.08H285.82V319H300.62V314.56ZM334.911 302.6V295.6H345.511V291.04H329.311V319H345.511V314.44H334.911V307.04H344.311V302.6H334.911ZM362.76 318.28C364.333 318.947 366.093 319.28 368.04 319.28C370.093 319.28 371.867 318.907 373.36 318.16C374.853 317.387 375.987 316.36 376.76 315.08C377.533 313.8 377.92 312.413 377.92 310.92C377.92 309.187 377.507 307.787 376.68 306.72C375.853 305.653 374.867 304.853 373.72 304.32C372.573 303.787 371.093 303.253 369.28 302.72C367.947 302.32 366.906 301.973 366.16 301.68C365.44 301.36 364.827 300.96 364.32 300.48C363.84 299.973 363.6 299.347 363.6 298.6C363.6 297.533 363.92 296.72 364.56 296.16C365.227 295.6 366.107 295.32 367.2 295.32C368.453 295.32 369.453 295.64 370.2 296.28C370.973 296.893 371.387 297.68 371.44 298.64H377.6C377.413 296.133 376.413 294.187 374.6 292.8C372.813 291.387 370.48 290.68 367.6 290.68C365.68 290.68 363.973 291.013 362.48 291.68C360.987 292.32 359.827 293.253 359 294.48C358.173 295.707 357.76 297.147 357.76 298.8C357.76 300.56 358.16 301.973 358.96 303.04C359.786 304.08 360.76 304.867 361.88 305.4C363.027 305.907 364.507 306.427 366.32 306.96C367.653 307.333 368.693 307.68 369.44 308C370.213 308.293 370.853 308.707 371.36 309.24C371.867 309.773 372.12 310.453 372.12 311.28C372.12 312.293 371.747 313.12 371 313.76C370.253 314.373 369.227 314.68 367.92 314.68C366.64 314.68 365.626 314.347 364.88 313.68C364.16 313.013 363.76 312.107 363.68 310.96H357.68C357.707 312.667 358.173 314.147 359.08 315.4C359.987 316.653 361.213 317.613 362.76 318.28ZM391.055 297.64C389.828 299.8 389.215 302.253 389.215 305C389.215 307.747 389.828 310.2 391.055 312.36C392.308 314.52 394.002 316.213 396.135 317.44C398.295 318.64 400.708 319.24 403.375 319.24C406.522 319.24 409.255 318.453 411.575 316.88C413.922 315.28 415.562 313.053 416.495 310.2H410.055C409.415 311.533 408.508 312.547 407.335 313.24C406.188 313.907 404.855 314.24 403.335 314.24C401.708 314.24 400.255 313.867 398.975 313.12C397.722 312.347 396.735 311.267 396.015 309.88C395.322 308.467 394.975 306.84 394.975 305C394.975 303.133 395.322 301.507 396.015 300.12C396.735 298.733 397.722 297.667 398.975 296.92C400.255 296.147 401.708 295.76 403.335 295.76C404.855 295.76 406.188 296.093 407.335 296.76C408.508 297.427 409.415 298.427 410.055 299.76H416.495C415.562 296.933 413.922 294.72 411.575 293.12C409.228 291.52 406.495 290.72 403.375 290.72C400.708 290.72 398.295 291.333 396.135 292.56C394.002 293.76 392.308 295.453 391.055 297.64ZM433.238 319L435.078 313.68H446.198L448.038 319H453.958L443.918 291.04H437.398L427.358 319H433.238ZM440.638 297.52L444.678 309.2H436.598L440.638 297.52ZM484.791 303.92C485.511 302.613 485.871 301.213 485.871 299.72C485.871 298.067 485.484 296.587 484.711 295.28C483.964 293.973 482.831 292.947 481.311 292.2C479.791 291.453 477.951 291.08 475.791 291.08H465.511V319H471.111V308.28H475.791C478.084 308.28 479.977 307.88 481.471 307.08C482.991 306.28 484.097 305.227 484.791 303.92ZM478.991 302.72C478.244 303.413 477.097 303.76 475.551 303.76H471.111V295.64H475.551C478.591 295.64 480.111 297 480.111 299.72C480.111 301 479.737 302 478.991 302.72ZM503.247 302.6V295.6H513.847V291.04H497.647V319H513.847V314.44H503.247V307.04H512.647V302.6H503.247ZM188.548 351.6V358.6H197.947V363.04H188.548V370.44H199.148V375H182.947V347.04H199.148V351.6H188.548ZM221.677 375.28C219.73 375.28 217.97 374.947 216.397 374.28C214.85 373.613 213.623 372.653 212.717 371.4C211.81 370.147 211.343 368.667 211.317 366.96H217.317C217.397 368.107 217.797 369.013 218.517 369.68C219.263 370.347 220.277 370.68 221.557 370.68C222.863 370.68 223.89 370.373 224.637 369.76C225.383 369.12 225.757 368.293 225.757 367.28C225.757 366.453 225.503 365.773 224.997 365.24C224.49 364.707 223.85 364.293 223.077 364C222.33 363.68 221.29 363.333 219.957 362.96C218.143 362.427 216.663 361.907 215.517 361.4C214.397 360.867 213.423 360.08 212.597 359.04C211.797 357.973 211.397 356.56 211.397 354.8C211.397 353.147 211.81 351.707 212.637 350.48C213.463 349.253 214.623 348.32 216.117 347.68C217.61 347.013 219.317 346.68 221.237 346.68C224.117 346.68 226.45 347.387 228.237 348.8C230.05 350.187 231.05 352.133 231.237 354.64H225.077C225.023 353.68 224.61 352.893 223.837 352.28C223.09 351.64 222.09 351.32 220.837 351.32C219.743 351.32 218.863 351.6 218.197 352.16C217.557 352.72 217.237 353.533 217.237 354.6C217.237 355.347 217.477 355.973 217.957 356.48C218.463 356.96 219.077 357.36 219.797 357.68C220.543 357.973 221.583 358.32 222.917 358.72C224.73 359.253 226.21 359.787 227.357 360.32C228.503 360.853 229.49 361.653 230.317 362.72C231.143 363.787 231.557 365.187 231.557 366.92C231.557 368.413 231.17 369.8 230.397 371.08C229.623 372.36 228.49 373.387 226.997 374.16C225.503 374.907 223.73 375.28 221.677 375.28ZM242.852 361C242.852 358.253 243.465 355.8 244.692 353.64C245.945 351.453 247.638 349.76 249.772 348.56C251.932 347.333 254.345 346.72 257.012 346.72C260.132 346.72 262.865 347.52 265.212 349.12C267.558 350.72 269.198 352.933 270.132 355.76H263.692C263.052 354.427 262.145 353.427 260.972 352.76C259.825 352.093 258.492 351.76 256.972 351.76C255.345 351.76 253.892 352.147 252.612 352.92C251.358 353.667 250.372 354.733 249.652 356.12C248.958 357.507 248.612 359.133 248.612 361C248.612 362.84 248.958 364.467 249.652 365.88C250.372 367.267 251.358 368.347 252.612 369.12C253.892 369.867 255.345 370.24 256.972 370.24C258.492 370.24 259.825 369.907 260.972 369.24C262.145 368.547 263.052 367.533 263.692 366.2H270.132C269.198 369.053 267.558 371.28 265.212 372.88C262.892 374.453 260.158 375.24 257.012 375.24C254.345 375.24 251.932 374.64 249.772 373.44C247.638 372.213 245.945 370.52 244.692 368.36C243.465 366.2 242.852 363.747 242.852 361ZM288.715 369.68L286.875 375H280.995L291.035 347.04H297.555L307.595 375H301.675L299.835 369.68H288.715ZM298.315 365.2L294.275 353.52L290.235 365.2H298.315ZM339.508 355.72C339.508 357.213 339.148 358.613 338.428 359.92C337.734 361.227 336.628 362.28 335.108 363.08C333.614 363.88 331.721 364.28 329.428 364.28H324.747V375H319.148V347.08H329.428C331.588 347.08 333.428 347.453 334.948 348.2C336.467 348.947 337.601 349.973 338.348 351.28C339.121 352.587 339.508 354.067 339.508 355.72ZM329.188 359.76C330.734 359.76 331.881 359.413 332.628 358.72C333.374 358 333.747 357 333.747 355.72C333.747 353 332.228 351.64 329.188 351.64H324.747V359.76H329.188ZM356.883 351.6V358.6H366.283V363.04H356.883V370.44H367.483V375H351.283V347.04H367.483V351.6H356.883ZM24.1805 360.945C15.3878 362.51 7.95877 367.926 3.85166 372.453L0.148336 369.094C4.78525 363.982 13.1459 357.831 23.3042 356.022C33.6568 354.179 45.5584 356.913 56.8043 369.076C66.9222 380.02 77.4647 382.145 86.5315 380.599C95.7795 379.023 103.725 373.573 108.167 369.027L111.743 372.521C106.768 377.613 97.9154 383.731 87.3717 385.528C76.6467 387.356 64.4043 384.662 53.133 372.471C42.9896 361.5 32.7789 359.414 24.1805 360.945ZM430.852 365.453C434.959 360.926 442.388 355.51 451.181 353.945C459.779 352.414 469.99 354.5 480.133 365.471C491.404 377.662 503.647 380.356 514.372 378.528C524.915 376.731 533.768 370.613 538.743 365.521L535.167 362.027C530.725 366.573 522.78 372.023 513.531 373.599C504.465 375.145 493.922 373.02 483.804 362.076C472.558 349.913 460.657 347.179 450.304 349.022C440.146 350.831 431.785 356.982 427.148 362.094L430.852 365.453Z" fill="white"/>
</svg>
