<svg width="526" height="386" viewBox="0 0 526 386" fill="none" xmlns="http://www.w3.org/2000/svg">
<path fill-rule="evenodd" clip-rule="evenodd" d="M246.613 272.532L1 273L0.990479 268L232.546 267.559L251.519 88.5322H149.019C167.019 77.8655 212.719 56.5322 251.519 56.5322L149.019 0.032251C175.594 -0.791014 232.819 16.8038 251.519 25.0322L265.519 31.5321L278.019 26.5322C295.396 18.2164 352.592 -0.89022 380.019 0.032251L278.019 56.5322C314.819 56.5322 361.352 77.8655 380.019 88.5322H278.019L303.783 267.423L525.991 267L526 272L304.503 272.422L304.519 272.532H246.613ZM149 362H1V357H149V362ZM378 362H526V357H378V362ZM24.165 317.48C25.7917 317.933 27.0717 318.76 28.005 319.96C28.9383 321.133 29.405 322.627 29.405 324.44C29.405 326.867 28.485 328.733 26.645 330.04C24.8317 331.347 22.1783 332 18.685 332H5.325V304H17.885C21.085 304 23.5517 304.64 25.285 305.92C27.045 307.2 27.925 308.973 27.925 311.24C27.925 312.707 27.5783 313.973 26.885 315.04C26.2183 316.107 25.3117 316.92 24.165 317.48ZM9.325 307.24V316.2H17.525C19.5783 316.2 21.1517 315.827 22.245 315.08C23.365 314.307 23.925 313.187 23.925 311.72C23.925 310.253 23.365 309.147 22.245 308.4C21.1517 307.627 19.5783 307.24 17.525 307.24H9.325ZM18.525 328.76C20.7917 328.76 22.4983 328.387 23.645 327.64C24.7917 326.893 25.365 325.72 25.365 324.12C25.365 321 23.085 319.44 18.525 319.44H9.325V328.76H18.525ZM63.7184 328.52V332H43.3984V304H63.1584V307.48H47.3984V316.08H61.4384V319.48H47.3984V328.52H63.7184ZM95.8353 325H80.9553L77.8753 332H73.7553L86.4353 304H90.3953L103.115 332H98.9153L95.8353 325ZM94.4353 321.8L88.3953 308.08L82.3553 321.8H94.4353ZM126.106 332.32C122.373 332.32 119.466 331.253 117.386 329.12C115.306 326.987 114.266 323.92 114.266 319.92V304H118.266V319.76C118.266 325.76 120.893 328.76 126.146 328.76C128.706 328.76 130.666 328.027 132.026 326.56C133.386 325.067 134.066 322.8 134.066 319.76V304H137.946V319.92C137.946 323.947 136.906 327.027 134.826 329.16C132.746 331.267 129.84 332.32 126.106 332.32ZM158.999 307.48H149.399V304H172.559V307.48H162.959V332H158.999V307.48ZM184.716 304H188.716V332H184.716V304ZM208.898 307.48V317.24H222.938V320.68H208.898V332H204.898V304H224.658V307.48H208.898ZM249.689 332.32C245.956 332.32 243.049 331.253 240.969 329.12C238.889 326.987 237.849 323.92 237.849 319.92V304H241.849V319.76C241.849 325.76 244.476 328.76 249.729 328.76C252.289 328.76 254.249 328.027 255.609 326.56C256.969 325.067 257.649 322.8 257.649 319.76V304H261.529V319.92C261.529 323.947 260.489 327.027 258.409 329.16C256.329 331.267 253.422 332.32 249.689 332.32ZM277.53 304H281.53V328.52H296.69V332H277.53V304ZM347.942 328.52V332H327.622V304H347.382V307.48H331.622V316.08H345.662V319.48H331.622V328.52H347.942ZM370.379 332.32C368.272 332.32 366.232 332 364.259 331.36C362.312 330.693 360.779 329.84 359.659 328.8L361.139 325.68C362.205 326.64 363.565 327.427 365.219 328.04C366.899 328.627 368.619 328.92 370.379 328.92C372.699 328.92 374.432 328.533 375.579 327.76C376.725 326.96 377.299 325.907 377.299 324.6C377.299 323.64 376.979 322.867 376.339 322.28C375.725 321.667 374.952 321.2 374.019 320.88C373.112 320.56 371.819 320.2 370.139 319.8C368.032 319.293 366.325 318.787 365.019 318.28C363.739 317.773 362.632 317 361.699 315.96C360.792 314.893 360.339 313.467 360.339 311.68C360.339 310.187 360.725 308.84 361.499 307.64C362.299 306.44 363.499 305.48 365.099 304.76C366.699 304.04 368.685 303.68 371.059 303.68C372.712 303.68 374.339 303.893 375.939 304.32C377.539 304.747 378.912 305.36 380.059 306.16L378.739 309.36C377.565 308.613 376.312 308.053 374.979 307.68C373.645 307.28 372.339 307.08 371.059 307.08C368.792 307.08 367.085 307.493 365.939 308.32C364.819 309.147 364.259 310.213 364.259 311.52C364.259 312.48 364.579 313.267 365.219 313.88C365.859 314.467 366.645 314.933 367.579 315.28C368.539 315.6 369.832 315.947 371.459 316.32C373.565 316.827 375.259 317.333 376.539 317.84C377.819 318.347 378.912 319.12 379.819 320.16C380.752 321.2 381.219 322.6 381.219 324.36C381.219 325.827 380.819 327.173 380.019 328.4C379.219 329.6 378.005 330.56 376.379 331.28C374.752 331.973 372.752 332.32 370.379 332.32ZM407.383 332.32C404.583 332.32 402.049 331.707 399.783 330.48C397.543 329.227 395.783 327.52 394.503 325.36C393.223 323.173 392.583 320.72 392.583 318C392.583 315.28 393.223 312.84 394.503 310.68C395.783 308.493 397.556 306.787 399.823 305.56C402.089 304.307 404.622 303.68 407.423 303.68C409.609 303.68 411.609 304.053 413.423 304.8C415.236 305.52 416.783 306.6 418.063 308.04L415.462 310.56C413.356 308.347 410.729 307.24 407.583 307.24C405.503 307.24 403.622 307.707 401.943 308.64C400.263 309.573 398.943 310.867 397.983 312.52C397.049 314.147 396.583 315.973 396.583 318C396.583 320.027 397.049 321.867 397.983 323.52C398.943 325.147 400.263 326.427 401.943 327.36C403.622 328.293 405.503 328.76 407.583 328.76C410.703 328.76 413.329 327.64 415.462 325.4L418.063 327.92C416.783 329.36 415.223 330.453 413.383 331.2C411.569 331.947 409.569 332.32 407.383 332.32ZM448.745 325H433.865L430.785 332H426.665L439.345 304H443.305L456.025 332H451.825L448.745 325ZM447.345 321.8L441.305 308.08L435.265 321.8H447.345ZM478.922 304C482.548 304 485.402 304.867 487.482 306.6C489.562 308.333 490.602 310.72 490.602 313.76C490.602 316.8 489.562 319.187 487.482 320.92C485.402 322.653 482.548 323.52 478.922 323.52H472.002V332H468.002V304H478.922ZM478.802 320.04C481.335 320.04 483.268 319.507 484.602 318.44C485.935 317.347 486.602 315.787 486.602 313.76C486.602 311.733 485.935 310.187 484.602 309.12C483.268 308.027 481.335 307.48 478.802 307.48H472.002V320.04H478.802ZM524.598 328.52V332H504.278V304H524.038V307.48H508.278V316.08H522.318V319.48H508.278V328.52H524.598ZM186.793 385V381.52H170.473V372.48H184.513V369.08H170.473V360.48H186.233V357H166.473V385H186.793ZM203.11 384.36C205.084 385 207.124 385.32 209.23 385.32C211.604 385.32 213.604 384.973 215.23 384.28C216.857 383.56 218.07 382.6 218.87 381.4C219.67 380.173 220.07 378.827 220.07 377.36C220.07 375.6 219.604 374.2 218.67 373.16C217.764 372.12 216.67 371.347 215.39 370.84C214.11 370.333 212.417 369.827 210.31 369.32C208.684 368.947 207.39 368.6 206.43 368.28C205.497 367.933 204.71 367.467 204.07 366.88C203.43 366.267 203.11 365.48 203.11 364.52C203.11 363.213 203.67 362.147 204.79 361.32C205.937 360.493 207.644 360.08 209.91 360.08C211.19 360.08 212.497 360.28 213.83 360.68C215.164 361.053 216.417 361.613 217.59 362.36L218.91 359.16C217.764 358.36 216.39 357.747 214.79 357.32C213.19 356.893 211.564 356.68 209.91 356.68C207.537 356.68 205.55 357.04 203.95 357.76C202.35 358.48 201.15 359.44 200.35 360.64C199.577 361.84 199.19 363.187 199.19 364.68C199.19 366.467 199.644 367.893 200.55 368.96C201.484 370 202.59 370.773 203.87 371.28C205.177 371.787 206.884 372.293 208.99 372.8C210.67 373.2 211.964 373.56 212.87 373.88C213.804 374.2 214.577 374.667 215.19 375.28C215.83 375.867 216.15 376.64 216.15 377.6C216.15 378.907 215.577 379.96 214.43 380.76C213.284 381.533 211.55 381.92 209.23 381.92C207.47 381.92 205.75 381.627 204.07 381.04C202.417 380.427 201.057 379.64 199.99 378.68L198.51 381.8C199.63 382.84 201.164 383.693 203.11 384.36ZM238.634 383.48C240.901 384.707 243.434 385.32 246.234 385.32C248.421 385.32 250.421 384.947 252.234 384.2C254.074 383.453 255.634 382.36 256.914 380.92L254.314 378.4C252.181 380.64 249.554 381.76 246.434 381.76C244.354 381.76 242.474 381.293 240.794 380.36C239.114 379.427 237.794 378.147 236.834 376.52C235.901 374.867 235.434 373.027 235.434 371C235.434 368.973 235.901 367.147 236.834 365.52C237.794 363.867 239.114 362.573 240.794 361.64C242.474 360.707 244.354 360.24 246.434 360.24C249.581 360.24 252.207 361.347 254.314 363.56L256.914 361.04C255.634 359.6 254.087 358.52 252.274 357.8C250.461 357.053 248.461 356.68 246.274 356.68C243.474 356.68 240.941 357.307 238.674 358.56C236.407 359.787 234.634 361.493 233.354 363.68C232.074 365.84 231.434 368.28 231.434 371C231.434 373.72 232.074 376.173 233.354 378.36C234.634 380.52 236.394 382.227 238.634 383.48ZM269.636 385L272.716 378H287.596L290.676 385H294.876L282.156 357H278.196L265.516 385H269.636ZM280.156 361.08L286.196 374.8H274.116L280.156 361.08ZM326.333 359.6C324.253 357.867 321.4 357 317.773 357H306.853V385H310.853V376.52H317.773C321.4 376.52 324.253 375.653 326.333 373.92C328.413 372.187 329.453 369.8 329.453 366.76C329.453 363.72 328.413 361.333 326.333 359.6ZM323.453 371.44C322.12 372.507 320.186 373.04 317.653 373.04H310.853V360.48H317.653C320.186 360.48 322.12 361.027 323.453 362.12C324.786 363.187 325.453 364.733 325.453 366.76C325.453 368.787 324.786 370.347 323.453 371.44ZM363.45 385V381.52H347.13V372.48H361.17V369.08H347.13V360.48H362.89V357H343.13V385H363.45Z" fill="white"/>
</svg>
