<svg width="526" height="386" viewBox="0 0 526 386" fill="none" xmlns="http://www.w3.org/2000/svg">
<path fill-rule="evenodd" clip-rule="evenodd" d="M245.623 272.532L0.00952379 273L0 268L231.556 267.559L250.529 88.5322H148.029C166.029 77.8655 211.729 56.5322 250.529 56.5322L148.029 0.032251C174.603 -0.791014 231.828 16.8038 250.529 25.0322L264.529 31.5321L277.029 26.5322C294.406 18.2164 351.602 -0.89022 379.029 0.032251L277.029 56.5322C313.829 56.5322 360.362 77.8655 379.029 88.5322H277.029L302.793 267.423L525 267L525.01 272L303.513 272.422L303.529 272.532H245.623ZM148.01 362H0.00952379V357H148.01V362ZM377.01 362H525.01V357H377.01V362ZM42.4386 313.72C43.9319 313.987 45.1986 314.773 46.2386 316.08C47.2786 317.387 47.7986 318.867 47.7986 320.52C47.7986 321.933 47.4253 323.213 46.6786 324.36C45.9586 325.48 44.9053 326.373 43.5186 327.04C42.1319 327.68 40.5186 328 38.6786 328H27.5586V300.2H38.1586C40.0519 300.2 41.6786 300.52 43.0386 301.16C44.3986 301.8 45.4253 302.667 46.1186 303.76C46.8119 304.827 47.1586 306.027 47.1586 307.36C47.1586 308.96 46.7319 310.293 45.8786 311.36C45.0253 312.427 43.8786 313.213 42.4386 313.72ZM32.1186 311.88H37.7586C39.2519 311.88 40.4119 311.547 41.2386 310.88C42.0919 310.187 42.5186 309.2 42.5186 307.92C42.5186 306.667 42.0919 305.693 41.2386 305C40.4119 304.28 39.2519 303.92 37.7586 303.92H32.1186V311.88ZM38.2786 324.28C39.8253 324.28 41.0386 323.907 41.9186 323.16C42.7986 322.413 43.2386 321.373 43.2386 320.04C43.2386 318.68 42.7719 317.6 41.8386 316.8C40.9053 316 39.6653 315.6 38.1186 315.6H32.1186V324.28H38.2786ZM65.1139 303.88V312.04H74.7139V315.76H65.1139V324.28H75.9139V328H60.5539V300.16H75.9139V303.88H65.1139ZM106.09 322.32H94.4505L92.4505 328H87.6905L97.6505 300.16H102.93L112.89 328H108.09L106.09 322.32ZM104.81 318.6L100.29 305.68L95.7305 318.6H104.81ZM129.541 300.2V317.92C129.541 320.027 130.088 321.613 131.181 322.68C132.301 323.747 133.848 324.28 135.821 324.28C137.821 324.28 139.368 323.747 140.461 322.68C141.581 321.613 142.141 320.027 142.141 317.92V300.2H146.701V317.84C146.701 320.107 146.208 322.027 145.221 323.6C144.234 325.173 142.914 326.347 141.261 327.12C139.608 327.893 137.781 328.28 135.781 328.28C133.781 328.28 131.954 327.893 130.301 327.12C128.674 326.347 127.381 325.173 126.421 323.6C125.461 322.027 124.981 320.107 124.981 317.84V300.2H129.541ZM178.398 300.2V303.92H170.998V328H166.438V303.92H158.998V300.2H178.398ZM195.376 300.2V328H190.816V300.2H195.376ZM225.523 300.2V303.92H213.723V312.12H222.923V315.84H213.723V328H209.163V300.2H225.523ZM242.069 300.2V317.92C242.069 320.027 242.616 321.613 243.709 322.68C244.829 323.747 246.376 324.28 248.349 324.28C250.349 324.28 251.896 323.747 252.989 322.68C254.109 321.613 254.669 320.027 254.669 317.92V300.2H259.229V317.84C259.229 320.107 258.736 322.027 257.749 323.6C256.763 325.173 255.443 326.347 253.789 327.12C252.136 327.893 250.309 328.28 248.309 328.28C246.309 328.28 244.483 327.893 242.829 327.12C241.203 326.347 239.909 325.173 238.949 323.6C237.989 322.027 237.509 320.107 237.509 317.84V300.2H242.069ZM277.526 324.32H286.926V328H272.966V300.2H277.526V324.32ZM321.29 303.88V312.04H330.89V315.76H321.29V324.28H332.09V328H316.73V300.16H332.09V303.88H321.29ZM354.667 328.28C352.8 328.28 351.12 327.96 349.627 327.32C348.134 326.653 346.96 325.72 346.107 324.52C345.254 323.32 344.827 321.92 344.827 320.32H349.707C349.814 321.52 350.28 322.507 351.107 323.28C351.96 324.053 353.147 324.44 354.667 324.44C356.24 324.44 357.467 324.067 358.347 323.32C359.227 322.547 359.667 321.56 359.667 320.36C359.667 319.427 359.387 318.667 358.827 318.08C358.294 317.493 357.614 317.04 356.787 316.72C355.987 316.4 354.867 316.053 353.427 315.68C351.614 315.2 350.134 314.72 348.987 314.24C347.867 313.733 346.907 312.96 346.107 311.92C345.307 310.88 344.907 309.493 344.907 307.76C344.907 306.16 345.307 304.76 346.107 303.56C346.907 302.36 348.027 301.44 349.467 300.8C350.907 300.16 352.574 299.84 354.467 299.84C357.16 299.84 359.36 300.52 361.067 301.88C362.8 303.213 363.76 305.053 363.947 307.4H358.907C358.827 306.387 358.347 305.52 357.467 304.8C356.587 304.08 355.427 303.72 353.987 303.72C352.68 303.72 351.614 304.053 350.787 304.72C349.96 305.387 349.547 306.347 349.547 307.6C349.547 308.453 349.8 309.16 350.307 309.72C350.84 310.253 351.507 310.68 352.307 311C353.107 311.32 354.2 311.667 355.587 312.04C357.427 312.547 358.92 313.053 360.067 313.56C361.24 314.067 362.227 314.853 363.027 315.92C363.854 316.96 364.267 318.36 364.267 320.12C364.267 321.533 363.88 322.867 363.107 324.12C362.36 325.373 361.254 326.387 359.787 327.16C358.347 327.907 356.64 328.28 354.667 328.28ZM375.928 314.04C375.928 311.32 376.554 308.88 377.808 306.72C379.088 304.56 380.808 302.88 382.968 301.68C385.154 300.453 387.541 299.84 390.128 299.84C393.088 299.84 395.714 300.573 398.008 302.04C400.328 303.48 402.008 305.533 403.048 308.2H397.568C396.848 306.733 395.848 305.64 394.568 304.92C393.288 304.2 391.808 303.84 390.128 303.84C388.288 303.84 386.648 304.253 385.208 305.08C383.768 305.907 382.634 307.093 381.808 308.64C381.008 310.187 380.608 311.987 380.608 314.04C380.608 316.093 381.008 317.893 381.808 319.44C382.634 320.987 383.768 322.187 385.208 323.04C386.648 323.867 388.288 324.28 390.128 324.28C391.808 324.28 393.288 323.92 394.568 323.2C395.848 322.48 396.848 321.387 397.568 319.92H403.048C402.008 322.587 400.328 324.64 398.008 326.08C395.714 327.52 393.088 328.24 390.128 328.24C387.514 328.24 385.128 327.64 382.968 326.44C380.808 325.213 379.088 323.52 377.808 321.36C376.554 319.2 375.928 316.76 375.928 314.04ZM432.945 322.32H421.305L419.305 328H414.545L424.505 300.16H429.785L439.745 328H434.945L432.945 322.32ZM431.665 318.6L427.145 305.68L422.585 318.6H431.665ZM471.316 308.48C471.316 309.893 470.982 311.227 470.316 312.48C469.649 313.733 468.582 314.76 467.116 315.56C465.649 316.333 463.769 316.72 461.476 316.72H456.436V328H451.876V300.2H461.476C463.609 300.2 465.409 300.573 466.876 301.32C468.369 302.04 469.476 303.027 470.196 304.28C470.942 305.533 471.316 306.933 471.316 308.48ZM461.476 313C463.209 313 464.502 312.613 465.356 311.84C466.209 311.04 466.636 309.92 466.636 308.48C466.636 305.44 464.916 303.92 461.476 303.92H456.436V313H461.476ZM488.025 303.88V312.04H497.625V315.76H488.025V324.28H498.825V328H483.465V300.16H498.825V303.88H488.025ZM176.705 369.04V360.88H187.505V357.16H172.145V385H187.505V381.28H176.705V372.76H186.305V369.04H176.705ZM205.041 384.32C206.534 384.96 208.214 385.28 210.081 385.28C212.054 385.28 213.761 384.907 215.201 384.16C216.668 383.387 217.774 382.373 218.521 381.12C219.294 379.867 219.681 378.533 219.681 377.12C219.681 375.36 219.268 373.96 218.441 372.92C217.641 371.853 216.654 371.067 215.481 370.56C214.334 370.053 212.841 369.547 211.001 369.04C209.614 368.667 208.521 368.32 207.721 368C206.921 367.68 206.254 367.253 205.721 366.72C205.214 366.16 204.961 365.453 204.961 364.6C204.961 363.347 205.374 362.387 206.201 361.72C207.028 361.053 208.094 360.72 209.401 360.72C210.841 360.72 212.001 361.08 212.881 361.8C213.761 362.52 214.241 363.387 214.321 364.4H219.361C219.174 362.053 218.214 360.213 216.481 358.88C214.774 357.52 212.574 356.84 209.881 356.84C207.988 356.84 206.321 357.16 204.881 357.8C203.441 358.44 202.321 359.36 201.521 360.56C200.721 361.76 200.321 363.16 200.321 364.76C200.321 366.493 200.721 367.88 201.521 368.92C202.321 369.96 203.281 370.733 204.401 371.24C205.548 371.72 207.028 372.2 208.841 372.68C210.281 373.053 211.401 373.4 212.201 373.72C213.028 374.04 213.708 374.493 214.241 375.08C214.801 375.667 215.081 376.427 215.081 377.36C215.081 378.56 214.641 379.547 213.761 380.32C212.881 381.067 211.654 381.44 210.081 381.44C208.561 381.44 207.374 381.053 206.521 380.28C205.694 379.507 205.228 378.52 205.121 377.32H200.241C200.241 378.92 200.668 380.32 201.521 381.52C202.374 382.72 203.548 383.653 205.041 384.32ZM233.222 363.72C231.968 365.88 231.342 368.32 231.342 371.04C231.342 373.76 231.968 376.2 233.222 378.36C234.502 380.52 236.222 382.213 238.382 383.44C240.542 384.64 242.928 385.24 245.542 385.24C248.502 385.24 251.128 384.52 253.422 383.08C255.742 381.64 257.422 379.587 258.462 376.92H252.982C252.262 378.387 251.262 379.48 249.982 380.2C248.702 380.92 247.222 381.28 245.542 381.28C243.702 381.28 242.062 380.867 240.622 380.04C239.182 379.187 238.048 377.987 237.222 376.44C236.422 374.893 236.022 373.093 236.022 371.04C236.022 368.987 236.422 367.187 237.222 365.64C238.048 364.093 239.182 362.907 240.622 362.08C242.062 361.253 243.702 360.84 245.542 360.84C247.222 360.84 248.702 361.2 249.982 361.92C251.262 362.64 252.262 363.733 252.982 365.2H258.462C257.422 362.533 255.742 360.48 253.422 359.04C251.128 357.573 248.502 356.84 245.542 356.84C242.955 356.84 240.568 357.453 238.382 358.68C236.222 359.88 234.502 361.56 233.222 363.72ZM276.719 379.32H288.359L290.359 385H295.159L285.199 357.16H279.919L269.959 385H274.719L276.719 379.32ZM282.559 362.68L287.079 375.6H277.999L282.559 362.68ZM325.73 369.48C326.397 368.227 326.73 366.893 326.73 365.48C326.73 363.933 326.357 362.533 325.61 361.28C324.89 360.027 323.783 359.04 322.29 358.32C320.823 357.573 319.023 357.2 316.89 357.2H307.29V385H311.85V373.72H316.89C319.183 373.72 321.063 373.333 322.53 372.56C323.997 371.76 325.063 370.733 325.73 369.48ZM320.77 368.84C319.917 369.613 318.623 370 316.89 370H311.85V360.92H316.89C320.33 360.92 322.05 362.44 322.05 365.48C322.05 366.92 321.623 368.04 320.77 368.84ZM343.439 369.04V360.88H354.239V357.16H338.879V385H354.239V381.28H343.439V372.76H353.039V369.04H343.439Z" fill="white"/>
</svg>
