<svg width="426" height="383" viewBox="0 0 426 383" fill="none" xmlns="http://www.w3.org/2000/svg">
<path fill-rule="evenodd" clip-rule="evenodd" d="M253.452 272H426V277H0V272H181.085L200.529 88.5322H98.0286C116.029 77.8655 161.729 56.5322 200.529 56.5322L98.0286 0.032251C124.603 -0.791014 181.828 16.8038 200.529 25.0322L214.529 31.5321L227.029 26.5322C244.406 18.2164 301.602 -0.89022 329.029 0.032251L227.029 56.5322C263.829 56.5322 310.362 77.8655 329.029 88.5322H227.029L253.452 272ZM83 352H1V347H83V352ZM344 352H426V347H344V352ZM71.8617 312.15C73.7284 312.483 75.3117 313.467 76.6117 315.1C77.9117 316.733 78.5617 318.583 78.5617 320.65C78.5617 322.417 78.0951 324.017 77.1617 325.45C76.2617 326.85 74.9451 327.967 73.2117 328.8C71.4784 329.6 69.4617 330 67.1617 330H53.2617V295.25H66.5117C68.8784 295.25 70.9117 295.65 72.6117 296.45C74.3117 297.25 75.5951 298.333 76.4617 299.7C77.3284 301.033 77.7617 302.533 77.7617 304.2C77.7617 306.2 77.2284 307.867 76.1617 309.2C75.0951 310.533 73.6617 311.517 71.8617 312.15ZM58.9617 309.85H66.0117C67.8784 309.85 69.3284 309.433 70.3617 308.6C71.4284 307.733 71.9617 306.5 71.9617 304.9C71.9617 303.333 71.4284 302.117 70.3617 301.25C69.3284 300.35 67.8784 299.9 66.0117 299.9H58.9617V309.85ZM66.6617 325.35C68.5951 325.35 70.1117 324.883 71.2117 323.95C72.3117 323.017 72.8617 321.717 72.8617 320.05C72.8617 318.35 72.2784 317 71.1117 316C69.9451 315 68.3951 314.5 66.4617 314.5H58.9617V325.35H66.6617ZM100.206 299.85V310.05H112.206V314.7H100.206V325.35H113.706V330H94.5059V295.2H113.706V299.85H100.206ZM151.427 322.9H136.877L134.377 330H128.427L140.877 295.2H147.477L159.927 330H153.927L151.427 322.9ZM149.827 318.25L144.177 302.1L138.477 318.25H149.827ZM180.74 295.25V317.4C180.74 320.033 181.423 322.017 182.79 323.35C184.19 324.683 186.123 325.35 188.59 325.35C191.09 325.35 193.023 324.683 194.39 323.35C195.79 322.017 196.49 320.033 196.49 317.4V295.25H202.19V317.3C202.19 320.133 201.573 322.533 200.34 324.5C199.107 326.467 197.457 327.933 195.39 328.9C193.323 329.867 191.04 330.35 188.54 330.35C186.04 330.35 183.757 329.867 181.69 328.9C179.657 327.933 178.04 326.467 176.84 324.5C175.64 322.533 175.04 320.133 175.04 317.3V295.25H180.74ZM241.811 295.25V299.9H232.561V330H226.861V299.9H217.561V295.25H241.811ZM263.034 295.25V330H257.334V295.25H263.034ZM300.718 295.25V299.9H285.968V310.15H297.468V314.8H285.968V330H280.268V295.25H300.718ZM321.4 295.25V317.4C321.4 320.033 322.083 322.017 323.45 323.35C324.85 324.683 326.783 325.35 329.25 325.35C331.75 325.35 333.683 324.683 335.05 323.35C336.45 322.017 337.15 320.033 337.15 317.4V295.25H342.85V317.3C342.85 320.133 342.233 322.533 341 324.5C339.767 326.467 338.117 327.933 336.05 328.9C333.983 329.867 331.7 330.35 329.2 330.35C326.7 330.35 324.417 329.867 322.35 328.9C320.317 327.933 318.7 326.467 317.5 324.5C316.3 322.533 315.7 320.133 315.7 317.3V295.25H321.4ZM365.721 325.4H377.471V330H360.021V295.25H365.721V325.4ZM106.131 362.05V351.85H119.631V347.2H100.431V382H119.631V377.35H106.131V366.7H118.131V362.05H106.131ZM141.551 381.15C143.418 381.95 145.518 382.35 147.851 382.35C150.318 382.35 152.451 381.883 154.251 380.95C156.085 379.983 157.468 378.717 158.401 377.15C159.368 375.583 159.851 373.917 159.851 372.15C159.851 369.95 159.335 368.2 158.301 366.9C157.301 365.567 156.068 364.583 154.601 363.95C153.168 363.317 151.301 362.683 149.001 362.05C147.268 361.583 145.901 361.15 144.901 360.75C143.901 360.35 143.068 359.817 142.401 359.15C141.768 358.45 141.451 357.567 141.451 356.5C141.451 354.933 141.968 353.733 143.001 352.9C144.035 352.067 145.368 351.65 147.001 351.65C148.801 351.65 150.251 352.1 151.351 353C152.451 353.9 153.051 354.983 153.151 356.25H159.451C159.218 353.317 158.018 351.017 155.851 349.35C153.718 347.65 150.968 346.8 147.601 346.8C145.235 346.8 143.151 347.2 141.351 348C139.551 348.8 138.151 349.95 137.151 351.45C136.151 352.95 135.651 354.7 135.651 356.7C135.651 358.867 136.151 360.6 137.151 361.9C138.151 363.2 139.351 364.167 140.751 364.8C142.185 365.4 144.035 366 146.301 366.6C148.101 367.067 149.501 367.5 150.501 367.9C151.535 368.3 152.385 368.867 153.051 369.6C153.751 370.333 154.101 371.283 154.101 372.45C154.101 373.95 153.551 375.183 152.451 376.15C151.351 377.083 149.818 377.55 147.851 377.55C145.951 377.55 144.468 377.067 143.401 376.1C142.368 375.133 141.785 373.9 141.651 372.4H135.551C135.551 374.4 136.085 376.15 137.151 377.65C138.218 379.15 139.685 380.317 141.551 381.15ZM176.777 355.4C175.21 358.1 174.427 361.15 174.427 364.55C174.427 367.95 175.21 371 176.777 373.7C178.377 376.4 180.527 378.517 183.227 380.05C185.927 381.55 188.91 382.3 192.177 382.3C195.877 382.3 199.16 381.4 202.027 379.6C204.927 377.8 207.027 375.233 208.327 371.9H201.477C200.577 373.733 199.327 375.1 197.727 376C196.127 376.9 194.277 377.35 192.177 377.35C189.877 377.35 187.827 376.833 186.027 375.8C184.227 374.733 182.81 373.233 181.777 371.3C180.777 369.367 180.277 367.117 180.277 364.55C180.277 361.983 180.777 359.733 181.777 357.8C182.81 355.867 184.227 354.383 186.027 353.35C187.827 352.317 189.877 351.8 192.177 351.8C194.277 351.8 196.127 352.25 197.727 353.15C199.327 354.05 200.577 355.417 201.477 357.25H208.327C207.027 353.917 204.927 351.35 202.027 349.55C199.16 347.717 195.877 346.8 192.177 346.8C188.944 346.8 185.96 347.567 183.227 349.1C180.527 350.6 178.377 352.7 176.777 355.4ZM231.149 374.9H245.699L248.199 382H254.199L241.749 347.2H235.149L222.699 382H228.649L231.149 374.9ZM238.449 354.1L244.099 370.25H232.749L238.449 354.1ZM292.412 362.6C293.246 361.033 293.662 359.367 293.662 357.6C293.662 355.667 293.196 353.917 292.262 352.35C291.362 350.783 289.979 349.55 288.112 348.65C286.279 347.717 284.029 347.25 281.362 347.25H269.362V382H275.062V367.9H281.362C284.229 367.9 286.579 367.417 288.412 366.45C290.246 365.45 291.579 364.167 292.412 362.6ZM286.212 361.8C285.146 362.767 283.529 363.25 281.362 363.25H275.062V351.9H281.362C285.662 351.9 287.812 353.8 287.812 357.6C287.812 359.4 287.279 360.8 286.212 361.8ZM314.549 362.05V351.85H328.049V347.2H308.849V382H328.049V377.35H314.549V366.7H326.549V362.05H314.549Z" fill="white"/>
</svg>
