<svg width="223" height="223" viewBox="0 0 223 223" fill="none" xmlns="http://www.w3.org/2000/svg">
<path fill-rule="evenodd" clip-rule="evenodd" d="M111.5 223C173.08 223 223 173.08 223 111.5C223 49.9202 173.08 0 111.5 0C49.9202 0 0 49.9202 0 111.5C0 173.08 49.9202 223 111.5 223ZM111.939 217.732C170.852 217.732 218.61 169.974 218.61 111.061C218.61 52.1481 170.852 4.38976 111.939 4.38976C53.0261 4.38976 5.26772 52.1481 5.26772 111.061C5.26772 169.974 53.0261 217.732 111.939 217.732Z" fill="white"/>
<path fill-rule="evenodd" clip-rule="evenodd" d="M138.584 112.127L103.815 147.163L100.975 144.345L133.535 111.535L101 79L103.828 76.1716L139.184 111.527L138.584 112.127Z" fill="white"/>
</svg>
