<svg width="223" height="223" viewBox="0 0 223 223" fill="none" xmlns="http://www.w3.org/2000/svg">
<path fill-rule="evenodd" clip-rule="evenodd" d="M111.5 -9.74764e-06C49.9203 -1.51311e-05 1.51311e-05 49.9202 9.74764e-06 111.5C4.36417e-06 173.08 49.9203 223 111.5 223C173.08 223 223 173.08 223 111.5C223 49.9203 173.08 -4.36417e-06 111.5 -9.74764e-06ZM111.061 5.26771C52.1481 5.2677 4.38979 53.0261 4.38978 111.939C4.38978 170.852 52.1481 218.61 111.061 218.61C169.974 218.61 217.732 170.852 217.732 111.939C217.732 53.0261 169.974 5.26771 111.061 5.26771Z" fill="white"/>
<path fill-rule="evenodd" clip-rule="evenodd" d="M84.4162 110.873L119.185 75.8374L122.025 78.655L89.4646 111.465L122 144L119.172 146.828L83.8163 111.473L84.4162 110.873Z" fill="white"/>
</svg>
