<svg width="175" height="94" viewBox="0 0 175 94" fill="none" xmlns="http://www.w3.org/2000/svg">
<path fill-rule="evenodd" clip-rule="evenodd" d="M143.634 0H148.634C148.634 0.261128 148.633 0.521935 148.63 0.782413C154.076 1.56687 159.761 2.94145 164.375 5.05054C169.394 7.34495 174.04 10.9411 174.469 16.3916C174.891 21.7542 171.081 27.4327 163.245 33.5302C155.293 39.7182 142.503 46.8819 123.274 55.1731C120.788 57.3081 118.156 59.2779 115.395 61.0656C121.668 63.1317 127.909 65.5471 132.93 68.0982C136.046 69.6816 138.81 71.3755 140.829 73.1449C142.746 74.8245 144.515 77.0279 144.5 79.6649C144.484 82.5196 142.442 84.6012 139.78 86.0713C137.067 87.5696 133.072 88.8196 127.688 89.8545C117.008 91.9069 100.125 93.2429 74.9783 93.491L74.9782 93.4999C74.8185 93.4985 74.6591 93.4971 74.5 93.4956C74.3409 93.4971 74.1815 93.4985 74.0218 93.4999L74.0217 93.491C48.8746 93.2429 31.9924 91.9069 21.3125 89.8545C15.9276 88.8196 11.9328 87.5696 9.2199 86.0713C6.55798 84.6012 4.51603 82.5196 4.50009 79.6649C4.48536 77.0279 6.25385 74.8245 8.17063 73.1449C10.1899 71.3755 12.9538 69.6816 16.0701 68.0982C21.1413 65.5217 27.4571 63.0835 33.7928 61.0038C15.1548 48.8954 2.41314 28.4773 0.818308 5C0.706078 3.34787 0.649048 1.6806 0.649048 0H5.64905H143.634ZM74.5 88.4954C99.8059 88.259 116.456 86.9213 126.744 84.9443C131.945 83.9447 135.334 82.8147 137.363 81.6945C139.442 80.546 139.499 79.7706 139.5 79.637C139.502 79.2857 139.205 78.3695 137.534 76.9054C135.966 75.5312 133.62 74.0573 130.665 72.5559C124.84 69.5964 117.103 66.7562 109.568 64.4653C99.5117 69.7218 88.0728 72.6943 75.9396 72.6943H73.3434C61.1684 72.6943 49.6926 69.7013 39.6114 64.4109C32.0197 66.7111 24.206 69.5729 18.335 72.5559C15.3799 74.0573 13.0342 75.5312 11.4659 76.9054C9.79509 78.3695 9.49805 79.2857 9.50001 79.637C9.50076 79.7706 9.55772 80.546 11.6371 81.6945C13.6656 82.8147 17.0546 83.9447 22.2561 84.9443C32.5435 86.9213 49.194 88.259 74.5 88.4954ZM132.673 45.4548C145.45 39.4165 154.317 34.1425 160.174 29.5842C167.827 23.6295 169.691 19.4136 169.484 16.7837C169.284 14.2418 166.999 11.7476 162.296 9.598C158.383 7.80922 153.399 6.55518 148.406 5.80333C147.225 20.7474 141.526 34.42 132.673 45.4548ZM5.8309 5H143.452C140.893 40.0518 111.644 67.6943 75.9396 67.6943H73.3434C37.6385 67.6943 8.38994 40.0518 5.8309 5Z" fill="#FF8214"/>
</svg>
