<svg width="192" height="234" viewBox="0 0 192 234" fill="none" xmlns="http://www.w3.org/2000/svg">
<path fill-rule="evenodd" clip-rule="evenodd" d="M98.1577 36.6222C97.6118 31.6674 97.3433 26.2689 97.5952 21.3263C97.8877 15.5849 98.8671 10.8638 100.595 8.0794C101.422 6.74525 102.319 6.02139 103.249 5.70727C104.173 5.39507 105.495 5.3645 107.42 6.12432C111.413 7.70046 117.165 12.35 125.065 22.0068L128.935 18.8409C120.952 9.08263 114.517 3.55018 109.256 1.4735C106.554 0.406909 103.982 0.182219 101.649 0.970166C99.3214 1.75621 97.5972 3.42677 96.3461 5.44333C93.9158 9.3603 92.9026 15.1657 92.6017 21.0719C92.3472 26.0662 92.5914 31.4251 93.1016 36.3629L5.23223 124.232L0.964466 128.5H7H31.5V231V233.5H34H158H160.5V231V129.5H185H191.036L186.768 125.232L98.1577 36.6222ZM31.5 120V123.5H13.0355L95.5 41.0356L178.964 124.5H160.5V120C160.5 115.858 157.142 112.5 153 112.5H39C34.8579 112.5 31.5 115.858 31.5 120ZM39 117.5C37.6193 117.5 36.5 118.619 36.5 120V228.5H155.5V120C155.5 118.619 154.381 117.5 153 117.5H39Z" fill="#FF8214"/>
</svg>
