<svg width="184" height="196" viewBox="0 0 184 196" fill="none" xmlns="http://www.w3.org/2000/svg">
<path fill-rule="evenodd" clip-rule="evenodd" d="M143.5 76C163.106 76 179 60.1061 179 40.5C179 20.8939 163.106 5 143.5 5C123.894 5 108 20.8939 108 40.5C108 60.1061 123.894 76 143.5 76ZM143.5 81C165.867 81 184 62.8675 184 40.5C184 18.1325 165.867 0 143.5 0C121.132 0 103 18.1325 103 40.5C103 62.8675 121.132 81 143.5 81ZM94.2442 46.7992L95.8064 50.5356C99.9082 60.3456 103.935 67.0642 109.414 72.526C114.909 78.004 122.019 82.3715 132.547 87.23L136.783 89.1845L132.81 91.6292L35.3102 151.629L34.5207 152.115L33.6053 151.969C29.7552 151.353 26.4844 150.472 23.9465 148.581C23.5977 148.722 23.2089 148.883 22.787 149.061C20.9224 149.852 18.4396 150.995 15.9351 152.41C13.4147 153.835 10.9631 155.487 9.10087 157.271C7.20315 159.09 6.1761 160.799 5.97932 162.321C5.47449 166.223 6.90709 169.08 9.60949 171.704C12.1072 174.129 15.4819 176.161 19.212 178.406L19.2154 178.408C19.7361 178.722 20.2637 179.039 20.7968 179.363C23.0923 180.755 25.1427 181.216 27.034 181.108C28.9565 180.997 30.9135 180.286 32.9716 179.017C37.1863 176.419 41.2907 171.846 45.7706 166.773L46.1208 166.377C50.3624 161.572 54.9311 156.398 59.913 153.048C65.1722 149.511 71.2095 147.803 77.9834 150.702C82.9044 152.807 87.0024 156.702 90.3556 161.132C93.7214 165.579 96.4527 170.718 98.5932 175.542C100.738 180.375 102.319 184.958 103.363 188.328C103.886 190.015 104.276 191.405 104.536 192.376C104.667 192.863 104.765 193.245 104.831 193.508C104.864 193.64 104.889 193.742 104.906 193.812L104.926 193.894L104.931 193.917L104.933 193.923L104.933 193.925C104.933 193.926 104.933 193.927 102.5 194.5C100.067 195.073 100.067 195.074 100.067 195.074L100.067 195.074L100.066 195.071L100.063 195.057L100.047 194.992C100.033 194.934 100.011 194.844 99.9808 194.724C99.921 194.486 99.8297 194.13 99.7068 193.671C99.4608 192.753 99.0884 191.426 98.5869 189.808C97.5824 186.566 96.0671 182.176 94.023 177.57C91.9745 172.954 89.4239 168.186 86.3689 164.15C83.3013 160.097 79.8397 156.934 76.0166 155.298C71.2696 153.267 67.0373 154.282 62.703 157.197C58.2614 160.183 54.056 164.945 49.6156 169.973L49.5182 170.083C45.1816 174.993 40.5705 180.206 35.5955 183.273C33.0587 184.837 30.3022 185.928 27.3209 186.099C24.3083 186.273 21.2643 185.495 18.2032 183.637C17.6966 183.33 17.1811 183.02 16.6602 182.708C12.998 180.508 9.07097 178.15 6.12639 175.291C2.61828 171.885 0.261735 167.546 1.02064 161.679C1.43025 158.513 3.3939 155.816 5.64113 153.662C7.9238 151.474 10.7714 149.586 13.4744 148.058C16.0588 146.597 18.5944 145.418 20.5369 144.585C19.3631 142.403 18.6685 139.733 18.2179 136.543L18.0595 135.422L18.7975 134.564L20.6042 132.462L91.6041 49.8703L94.2442 46.7992ZM24.3957 135.722L23.3404 136.949C23.9903 140.76 24.9824 142.784 26.3167 144.053C27.6988 145.367 29.8024 146.219 33.4898 146.878L126.275 89.7799C117.657 85.5304 111.164 81.3307 105.884 76.0671C100.534 70.7344 96.5466 64.4273 92.797 56.1527L24.3957 135.722Z" fill="#FF8214"/>
</svg>
