<svg width="243" height="213" viewBox="0 0 243 213" fill="none" xmlns="http://www.w3.org/2000/svg">
<path fill-rule="evenodd" clip-rule="evenodd" d="M5 5H152V19L5 19V5ZM0 24V19V5V0H5H152H157V5V19V24V25.5C157 68.3532 122.662 103.186 80 103.986L80 203H123V208H33V203H75L75 103.923C33.2698 102.092 0 67.6815 0 25.5V24ZM152 24V25.5C152 66.0929 119.093 99 78.5 99C37.9071 99 5 66.0929 5 25.5V24L152 24Z" fill="#FF8214"/>
<path d="M119 45H242L227.5 173H134L119 45Z" fill="white"/>
<path fill-rule="evenodd" clip-rule="evenodd" d="M124 50H237.034V58.8076L124 58.8076V50ZM119 63.8076V58.8076V50V45H124H237.034H242.034V50V58.8076V63.8076V64.9832C242.034 98.2023 215.703 125.272 182.774 126.459L182.774 203H215.389V208H144.861V203H177.774L177.774 126.44C145.072 125.005 119 98.0389 119 64.9832V63.8076ZM237.034 63.8076V64.9832C237.034 96.1965 211.73 121.5 180.517 121.5C149.303 121.5 124 96.1965 124 64.9832V63.8076L237.034 63.8076Z" fill="#FF8214"/>
</svg>
